<svg xmlns="http://www.w3.org/2000/svg" viewBox="0 0 72 72" style="enable-background:new 0 0 72 72" xml:space="preserve"><path d="M0 0h72v72H0z"/><path d="M44.615 34.685a12.495 12.495 0 0 0-.472-.214c-.278-5.12-3.076-8.051-7.774-8.081h-.063c-2.81 0-5.147 1.199-6.585 3.381l2.583 1.773c1.075-1.63 2.761-1.978 4.003-1.978h.043c1.547.01 2.714.46 3.47 1.337.549.638.917 1.52 1.099 2.634-1.372-.233-2.855-.305-4.44-.214-4.467.257-7.338 2.862-7.145 6.482.098 1.836 1.012 3.415 2.575 4.447 1.322.872 3.024 1.299 4.792 1.202 2.336-.128 4.169-1.019 5.447-2.649.97-1.237 1.585-2.84 1.856-4.861 1.113.671 1.938 1.555 2.394 2.618.775 1.807.82 4.775-1.603 7.196-2.122 2.12-4.673 3.037-8.528 3.066-4.277-.032-7.512-1.404-9.615-4.077-1.969-2.503-2.987-6.12-3.025-10.747.038-4.628 1.056-8.244 3.025-10.747 2.103-2.673 5.338-4.045 9.614-4.077 4.308.032 7.6 1.41 9.783 4.097 1.07 1.317 1.877 2.974 2.41 4.905l3.027-.808c-.645-2.377-1.66-4.426-3.041-6.125-2.8-3.444-6.893-5.209-12.168-5.245h-.021c-5.264.036-9.312 1.808-12.032 5.265-2.42 3.076-3.668 7.357-3.71 12.722v.026c.042 5.365 1.29 9.646 3.71 12.722 2.72 3.457 6.768 5.229 12.032 5.265h.021c4.68-.032 7.979-1.258 10.697-3.973 3.555-3.552 3.448-8.005 2.276-10.738-.84-1.96-2.443-3.552-4.635-4.604zm-8.08 7.598c-1.958.11-3.992-.769-4.092-2.65-.075-1.396.993-2.953 4.211-3.139.369-.02.73-.031 1.086-.031 1.169 0 2.263.113 3.257.33-.371 4.632-2.546 5.384-4.463 5.49z" style="fill:#fff"/></svg>